<?xml version="1.0" encoding="utf-8"?>
<svg version="1.1" xmlns:xlink="http://www.w3.org/1999/xlink" width="26px" height="26px" xmlns="http://www.w3.org/2000/svg">
  <g transform="matrix(1 0 0 1 -1431 -408 )">
    <path d="M 24.9674479166667 7.95572916666667  C 25.6558159722222 9.55815972222222  26 11.2395833333333  26 13  C 26 14.7604166666667  25.6558159722222 16.4418402777778  24.9674479166667 18.0442708333333  C 24.2790798611111 19.6467013888889  23.3537326388889 21.0290798611111  22.19140625 22.19140625  C 21.0290798611111 23.3537326388889  19.6467013888889 24.2790798611111  18.0442708333333 24.9674479166667  C 16.4418402777778 25.6558159722222  14.7604166666667 26  13 26  C 11.0590277777778 26  9.21397569444444 25.5909288194444  7.46484375 24.7727864583333  C 5.71571180555556 23.9546440972222  4.22612847222222 22.80078125  2.99609375 21.3111979166667  C 2.91710069444444 21.1983506944444  2.88042534722222 21.0713975694444  2.88606770833333 20.9303385416667  C 2.89171006944444 20.7892795138889  2.93967013888889 20.6736111111111  3.02994791666667 20.5833333333333  L 5.34895833333333 18.2473958333333  C 5.46180555555556 18.1458333333333  5.60286458333333 18.0950520833333  5.77213541666667 18.0950520833333  C 5.95269097222222 18.1176215277778  6.08246527777778 18.1853298611111  6.16145833333333 18.2981770833333  C 6.98524305555556 19.3702256944444  7.99522569444444 20.1996527777778  9.19140625 20.7864583333333  C 10.3875868055556 21.3732638888889  11.6571180555556 21.6666666666667  13 21.6666666666667  C 14.1736111111111 21.6666666666667  15.2936197916667 21.4381510416667  16.3600260416667 20.9811197916667  C 17.4264322916667 20.5240885416667  18.3489583333333 19.90625  19.1276041666667 19.1276041666667  C 19.90625 18.3489583333333  20.5240885416667 17.4264322916667  20.9811197916667 16.3600260416667  C 21.4381510416667 15.2936197916667  21.6666666666667 14.1736111111111  21.6666666666667 13  C 21.6666666666667 11.8263888888889  21.4381510416667 10.7063802083333  20.9811197916667 9.63997395833333  C 20.5240885416667 8.57356770833333  19.90625 7.65104166666667  19.1276041666667 6.87239583333333  C 18.3489583333333 6.09375  17.4264322916667 5.47591145833333  16.3600260416667 5.01888020833333  C 15.2936197916667 4.56184895833333  14.1736111111111 4.33333333333333  13 4.33333333333333  C 11.8940972222222 4.33333333333333  10.8333333333333 4.53363715277778  9.81770833333333 4.93424479166667  C 8.80208333333333 5.33485243055555  7.89930555555556 5.90755208333333  7.109375 6.65234375  L 9.42838541666667 8.98828125  C 9.77821180555556 9.32682291666667  9.85720486111111 9.71614583333333  9.66536458333333 10.15625  C 9.47352430555556 10.6076388888889  9.140625 10.8333333333333  8.66666666666667 10.8333333333333  L 1.08333333333333 10.8333333333333  C 0.789930555555556 10.8333333333333  0.536024305555556 10.7261284722222  0.321614583333333 10.51171875  C 0.107204861111111 10.2973090277778  0 10.0434027777778  0 9.75  L 0 2.16666666666667  C 0 1.69270833333333  0.225694444444444 1.35980902777778  0.677083333333333 1.16796875  C 1.1171875 0.97612847222222  1.50651041666667 1.05512152777778  1.84505208333333 1.40494791666667  L 4.04557291666667 3.58854166666667  C 5.25303819444444 2.44878472222222  6.63259548611111 1.56575520833333  8.18424479166667 0.939453125  C 9.73589409722222 0.313151041666668  11.3411458333333 0  13 0  C 14.7604166666667 0  16.4418402777778 0.344184027777777  18.0442708333333 1.03255208333333  C 19.6467013888889 1.72092013888889  21.0290798611111 2.64626736111111  22.19140625 3.80859375  C 23.3537326388889 4.97092013888889  24.2790798611111 6.35329861111111  24.9674479166667 7.95572916666667  Z M 15.0143229166667 7.73567708333333  C 15.1158854166667 7.83723958333333  15.1666666666667 7.96701388888889  15.1666666666667 8.125  L 15.1666666666667 15.7083333333333  C 15.1666666666667 15.8663194444444  15.1158854166667 15.99609375  15.0143229166667 16.09765625  C 14.9127604166667 16.19921875  14.7829861111111 16.25  14.625 16.25  L 9.20833333333333 16.25  C 9.05034722222222 16.25  8.92057291666667 16.19921875  8.81901041666667 16.09765625  C 8.71744791666667 15.99609375  8.66666666666667 15.8663194444444  8.66666666666667 15.7083333333333  L 8.66666666666667 14.625  C 8.66666666666667 14.4670138888889  8.71744791666667 14.3372395833333  8.81901041666667 14.2356770833333  C 8.92057291666667 14.1341145833333  9.05034722222222 14.0833333333333  9.20833333333333 14.0833333333333  L 13 14.0833333333333  L 13 8.125  C 13 7.96701388888889  13.05078125 7.83723958333333  13.15234375 7.73567708333333  C 13.25390625 7.63411458333333  13.3836805555556 7.58333333333333  13.5416666666667 7.58333333333333  L 14.625 7.58333333333333  C 14.7829861111111 7.58333333333333  14.9127604166667 7.63411458333333  15.0143229166667 7.73567708333333  Z " fill-rule="nonzero" fill="#5a738e" stroke="none" transform="matrix(1 0 0 1 1431 408 )" />
  </g>
</svg>